<svg width="49" height="34" viewBox="0 0 49 34" fill="none" xmlns="http://www.w3.org/2000/svg">
<g id="Logo" clip-path="url(#clip0_395_4385)">
<path id="Vector" d="M17.087 8.18321C18.0127 8.18321 18.8549 8.29008 19.6137 8.51908V0.137405C18.8018 0.0458015 17.9596 0 17.087 0C13.8244 0 10.8956 0.732825 8.29313 2.20611C5.69062 3.67939 3.65717 5.70229 2.19278 8.28244C0.728399 10.855 0 13.7634 0 17C0 20.2366 0.728399 23.145 2.19278 25.7252C3.65717 28.3053 5.69062 30.3282 8.29313 31.8015C10.8956 33.2748 13.832 34.0076 17.087 34.0076C17.9596 34.0076 18.8018 33.9618 19.6137 33.8779V25.4504C18.8549 25.7099 18.0127 25.8321 17.087 25.8321C14.8032 25.8321 12.9594 25.0229 11.5633 23.4046C10.1672 21.7863 9.46918 19.6565 9.46918 17.0153C9.46918 14.374 10.1672 12.2443 11.5633 10.626C12.9594 9.00763 14.8032 8.19847 17.087 8.19847V8.18321Z" fill="#275EF5"/>
<path id="Vector_2" d="M48.9996 25.8168V34H36.7003C36.3589 34 36.025 34 35.6912 33.9771C32.8307 33.8397 30.2358 33.1145 27.9064 31.7939C25.2963 30.3206 23.2705 28.3053 21.8061 25.7252C20.3417 23.145 19.6133 20.2366 19.6133 17C19.6133 13.7634 20.3417 10.855 21.8061 8.27481C23.2705 5.70229 25.2963 3.67176 27.9064 2.20611C30.5089 0.732825 33.4377 0 36.7003 0C37.5729 0 38.4151 0.0458015 39.2269 0.137405V8.51145C38.4682 8.29008 37.626 8.18321 36.7003 8.18321C34.4165 8.18321 32.5727 8.99237 31.1766 10.6107C29.7805 12.229 29.0749 14.3588 29.0749 17C29.0749 19.6412 29.7805 21.771 31.1766 23.3893C32.5727 25.0076 34.4165 25.8168 36.7003 25.8168H48.9996Z" fill="#275EF5"/>
<path id="Vector_3" d="M36.7008 34H35.6917V33.9771C36.0255 33.9923 36.3593 34 36.7008 34Z" fill="#275EF5"/>
<path id="Vector_4" d="M49 22.6183V12.687H40.8662V22.6183H49Z" fill="#22DEF2"/>
</g>
<defs>
<clipPath id="clip0_395_4385">
<rect width="49" height="34" fill="white"/>
</clipPath>
</defs>
</svg>
