<?xml version="1.0" encoding="utf-8"?>

<svg version="1.1" id="Layer_1" xmlns="http://www.w3.org/2000/svg" xmlns:xlink="http://www.w3.org/1999/xlink" x="0px" y="0px"
	 viewBox="0 0 328.5 77.3" style="enable-background:new 0 0 328.5 77.3;" xml:space="preserve">
<style type="text/css">
	.st0{fill:#FAFBFC;}
	.st1{fill:#FAFBFC;stroke:#ABB5C5;stroke-width: 1px;}
</style>
<g>
	<path class="st0" d="M324.4,22.3C324,13.8,317,7,308.3,6.9c-96.1-1.6-192.1-1.6-287.9,0C11.8,7,4.8,13.6,4.3,22
		c-0.7,11-0.7,22,0,33c0.5,8.3,7.5,14.9,16,15.1c96,2.1,192,2.1,288.1,0v0c8.6-0.2,15.6-7,16-15.5C324.9,43.8,324.9,33.1,324.4,22.3
		z M323.9,54.5c-0.3,8.1-6.9,14.5-15,15l-0.5,0c-96.1,2.1-192.2,2.1-288.1,0C12,69.3,5.3,63,4.8,54.9c-0.3-5.5-0.5-11-0.5-16.5
		c0-5.5,0.2-11,0.5-16.5c0.3-4.1,2.1-7.7,4.9-10.3c2.8-2.6,6.6-4.3,10.7-4.3c95.9-1.6,191.9-1.6,287.9,0c8.4,0.1,15.3,6.7,15.6,15
		C324.4,33.1,324.4,43.8,323.9,54.5z"/>
	<g>
		<g>
			
				<image style="overflow:visible;opacity:0.1;" width="345" height="90" xlink:href="13D74852.png"  transform="matrix(1 0 0 1 -5.5745 -1.1489)">
			</image>
			<path class="st0" d="M323.9,54.5c-0.3,8.1-6.9,14.5-15,15l-0.5,0c-96.1,2.1-192.2,2.1-288.1,0C12,69.3,5.3,63,4.8,54.9
				c-0.3-5.5-0.5-11-0.5-16.5c0-5.5,0.2-11,0.5-16.5c0.3-4.1,2.1-7.7,4.9-10.3c2.8-2.6,6.6-4.3,10.7-4.3c95.9-1.6,191.9-1.6,287.9,0
				c8.4,0.1,15.3,6.7,15.6,15C324.4,33.1,324.4,43.8,323.9,54.5z"/>
		</g>
		<path class="st1" d="M323.9,54.5c-0.3,8.1-6.9,14.5-15,15l-0.5,0c-96.1,2.1-192.2,2.1-288.1,0C12,69.3,5.3,63,4.8,54.9
			c-0.3-5.5-0.5-11-0.5-16.5c0-5.5,0.2-11,0.5-16.5c0.3-4.1,2.1-7.7,4.9-10.3c2.8-2.6,6.6-4.3,10.7-4.3c95.9-1.6,191.9-1.6,287.9,0
			c8.4,0.1,15.3,6.7,15.6,15C324.4,33.1,324.4,43.8,323.9,54.5z"/>
	</g>
</g>
</svg>
