<svg width="258" height="95" viewBox="0 0 258 95" fill="none" xmlns="http://www.w3.org/2000/svg">
<g id="Vector" filter="url(#filter0_ddd_395_4489)">
<path d="M219.704 42.023C159.206 43.3257 98.7645 43.3257 38.3843 42.023C33.0349 41.9065 28.647 37.9297 28.3228 32.8726C27.8924 26.2163 27.8924 19.5547 28.3228 12.8984C28.6414 7.81483 33.0685 3.8327 38.4402 3.74268C98.7813 2.75244 159.178 2.75244 219.642 3.74268C225.109 3.8327 229.553 7.95251 229.782 13.1261C230.073 19.6341 230.073 26.1369 229.782 32.6449C229.553 37.7973 225.148 41.9118 219.704 42.0283V42.023Z" fill="#FAFBFC"/>
<path d="M28.8218 32.8403L28.8218 32.8406C29.1279 37.6148 33.2807 41.4117 38.3951 41.5231C38.3951 41.5231 38.3952 41.5231 38.3952 41.5231L28.8218 32.8403ZM28.8218 32.8403C28.3927 26.2055 28.3927 19.5655 28.8218 12.9307L28.8218 12.9297M28.8218 32.8403L28.8218 12.9297M28.8218 12.9297C29.1226 8.13126 33.3119 4.32877 38.4484 4.24261L28.8218 12.9297ZM220.029 41.5159L219.693 41.5231L38.4486 4.24261C98.7841 3.25246 159.176 3.25246 219.634 4.24261C224.859 4.32865 229.066 8.26088 229.282 13.1482L229.282 13.1484C229.572 19.6416 229.572 26.1294 229.282 32.6226L229.782 32.6449L229.282 32.6227C229.071 37.3855 225.074 41.2471 220.029 41.5159Z" stroke="#ABB5C5"/>
</g>
<defs>
<filter id="filter0_ddd_395_4489" x="0.971874" y="0.271873" width="256.056" height="94.0563" filterUnits="userSpaceOnUse" color-interpolation-filters="sRGB">
<feFlood flood-opacity="0" result="BackgroundImageFix"/>
<feColorMatrix in="SourceAlpha" type="matrix" values="0 0 0 0 0 0 0 0 0 0 0 0 0 0 0 0 0 0 127 0" result="hardAlpha"/>
<feOffset dy="2.1"/>
<feGaussianBlur stdDeviation="1.79219"/>
<feColorMatrix type="matrix" values="0 0 0 0 0 0 0 0 0 0 0 0 0 0 0 0 0 0 0.0195 0"/>
<feBlend mode="normal" in2="BackgroundImageFix" result="effect1_dropShadow_395_4489"/>
<feColorMatrix in="SourceAlpha" type="matrix" values="0 0 0 0 0 0 0 0 0 0 0 0 0 0 0 0 0 0 127 0" result="hardAlpha"/>
<feOffset dy="9.6"/>
<feGaussianBlur stdDeviation="5.0375"/>
<feColorMatrix type="matrix" values="0 0 0 0 0 0 0 0 0 0 0 0 0 0 0 0 0 0 0.03 0"/>
<feBlend mode="normal" in2="effect1_dropShadow_395_4489" result="effect2_dropShadow_395_4489"/>
<feColorMatrix in="SourceAlpha" type="matrix" values="0 0 0 0 0 0 0 0 0 0 0 0 0 0 0 0 0 0 127 0" result="hardAlpha"/>
<feOffset dy="24.3"/>
<feGaussianBlur stdDeviation="13.5141"/>
<feColorMatrix type="matrix" values="0 0 0 0 0 0 0 0 0 0 0 0 0 0 0 0 0 0 0.0405 0"/>
<feBlend mode="normal" in2="effect2_dropShadow_395_4489" result="effect3_dropShadow_395_4489"/>
<feBlend mode="normal" in="SourceGraphic" in2="effect3_dropShadow_395_4489" result="shape"/>
</filter>
</defs>
</svg>
