<svg width="27" height="20" viewBox="0 0 27 20" fill="none" xmlns="http://www.w3.org/2000/svg">
<g id="sun">
<path id="Vector" d="M13.0303 13.9568L5.79682 15.6971C5.65802 15.1259 5.58862 14.544 5.58862 13.9568C5.58862 9.873 8.94643 6.5152 13.0303 6.5152C17.1141 6.5152 20.4719 9.873 20.4719 13.9568C20.4719 14.6508 20.3758 15.3395 20.1836 16.0067L13.0303 13.9568Z" fill="#D4D2FB"/>
<path id="Vector_2" d="M26.3281 13.7061H0.864258V19.9999H26.3281V13.7061Z" fill="#B08AED"/>
<path id="Vector_3" d="M13.5906 0.611084H12.0479V5.13798H13.5906V0.611084Z" fill="#B08AED"/>
<path id="Vector_4" d="M21.1027 3.87596L19.9209 2.88428L17.4434 5.83682L18.6253 6.8285L21.1027 3.87596Z" fill="#B08AED"/>
<path id="Vector_5" d="M25.579 11.4466L25.3616 9.91925L21.5933 10.4556L21.8107 11.9829L25.579 11.4466Z" fill="#B08AED"/>
<path id="Vector_6" d="M1.04746 9.96199L0.830078 11.4894L4.33936 11.9888L4.55674 10.4614L1.04746 9.96199Z" fill="#B08AED"/>
<path id="Vector_7" d="M6.022 2.91001L4.85254 3.91626L7.349 6.81764L8.51846 5.8114L6.022 2.91001Z" fill="#B08AED"/>
</g>
</svg>
