<svg width="24" height="24" viewBox="0 0 24 24" fill="none" xmlns="http://www.w3.org/2000/svg">
<g id="Frame">
<path id="Vector" d="M20.055 7.98297C20.066 8.15697 20.066 8.32997 20.066 8.50597C20.066 13.844 16.146 20 8.976 20V19.997C6.84873 19.9976 4.76906 19.3674 3 18.186C3.308 18.224 3.618 18.243 3.928 18.244C5.69321 18.2417 7.40341 17.6295 8.769 16.511C7.101 16.479 5.639 15.351 5.127 13.706C5.71091 13.8226 6.31419 13.7986 6.887 13.636C5.07 13.256 3.76 11.6 3.76 9.67597V9.62597C4.29921 9.93796 4.90734 10.1115 5.53 10.131C3.816 8.94497 3.288 6.58297 4.322 4.73697C6.302 7.26097 9.222 8.79497 12.356 8.95697C12.2002 8.27075 12.222 7.55612 12.4194 6.88069C12.6168 6.20525 12.9832 5.59133 13.484 5.09697C13.8515 4.7344 14.2888 4.45036 14.7695 4.26209C15.2501 4.07383 15.764 3.98528 16.28 4.00184C16.7959 4.01839 17.3031 4.1397 17.7707 4.3584C18.2383 4.57709 18.6565 4.88859 19 5.27397C19.8759 5.09432 20.7135 4.76264 21.475 4.29397C21.185 5.22797 20.575 6.02297 19.762 6.52697C20.5365 6.43172 21.2915 6.21683 22 5.88997C21.4811 6.69759 20.8225 7.40632 20.055 7.98297Z" fill="#71717A"/>
</g>
</svg>
